# xmcd
#
# Track frame offsets:
#	150
#	12400
#	31590
#	42335
#	57907
#	71017
#	83177
#	95922
#	108537
#	127245
#	150727
#	162462
#	176362
#	189315
#	205087
#	218550
#	237870
#
# Disc length: 3391 seconds
#
# Revision: 1
# Processed by: cddbd v1.4PL0 Copyright (c) Steve Scherf et al.
# Submitted via: audiograbber 1.81.02
#
DISCID=e80d3d11
DTITLE=Various Artist - SveitaSæla 2
DYEAR=1993
DGENRE=Pop
TTITLE0=Patsy Cline - Crazy
TTITLE1=Reba McEntire - The Night The Light Went Out In Georgia
TTITLE2=Jim Reeves - He'll Have To Go
TTITLE3=Ronnie Milsap - I Wouldn't have Missed It For The World
TTITLE4=Dolly Parton - I Will Always Love You
TTITLE5=The Judds - Rockin' With The Rythm Of The Rain
TTITLE6=Hank Snow - I'm Movin' On
TTITLE7=Bobby Bare - Detroit City
TTITLE8=Juice Newton - Angel Of The Morning
TTITLE9=Dr. Hook - When You're In Love With A Beautiful Woman
TTITLE10=Tennessee Ernie Ford - Sixteen Tons
TTITLE11=Glen Campell - Wichita Lineman
TTITLE12=Alan Jackson - Don't Rock The Jukebox
TTITLE13=Radney Foster - Nobody Wins
TTITLE14=Brooks and Dunn - Brand New Man
TTITLE15=Brimkló - Sagan Af Nínu Og Geira
TTITLE16=Sléttuúlfarnir - Ég Er Ennþá Þessi Asni Sem Þú Kysstir Þá
EXTD=
EXTT0=
EXTT1=
EXTT2=
EXTT3=
EXTT4=
EXTT5=
EXTT6=
EXTT7=
EXTT8=
EXTT9=
EXTT10=
EXTT11=
EXTT12=
EXTT13=
EXTT14=
EXTT15=
EXTT16=
PLAYORDER=
